<svg id="Слой_1" data-name="Слой 1" xmlns="http://www.w3.org/2000/svg" viewBox="0 0 213.21 213.21"><defs><style>.cls-1{fill:#31c5cb;}.cls-2{fill:#fff;}</style></defs><title>LOGO</title><circle class="cls-1" cx="106.61" cy="106.61" r="106.61"/><path class="cls-2" d="M361.88,334.65H329.79V302.56a16.94,16.94,0,0,0-16.94-16.94H298.34a16.94,16.94,0,0,0-16.94,16.94v32.08H249.13a16.93,16.93,0,0,0-16.75,16.93v14.51A16.93,16.93,0,0,0,249.13,383H281.4v32.28h0a16.93,16.93,0,0,0,16.93,16.75h14.51a16.93,16.93,0,0,0,16.93-16.75h0V383h32.08a16.94,16.94,0,0,0,16.94-16.94V351.58A16.94,16.94,0,0,0,361.88,334.65Z" transform="translate(-198.99 -252.23)"/></svg>