<svg id="Слой_1" data-name="Слой 1" xmlns="http://www.w3.org/2000/svg" viewBox="0 0 281.08 39.32"><defs><style>.cls-1,.cls-2{fill:#fff;}.cls-2{font-size:23px;font-family:Roboto-Medium, Roboto;}.cls-3{letter-spacing:0.01em;}.cls-4{letter-spacing:0.01em;}.cls-5{letter-spacing:-0.13em;}</style></defs><title>кресттестбелый</title><path class="cls-1" d="M282,469.28h-7.79v-7.79a4.11,4.11,0,0,0-4.11-4.11h-3.52a4.11,4.11,0,0,0-4.11,4.11v7.79H254.6a4.11,4.11,0,0,0-4.07,4.11v3.52A4.11,4.11,0,0,0,254.6,481h7.83v7.83h0a4.11,4.11,0,0,0,4.11,4.07h3.52a4.11,4.11,0,0,0,4.11-4.07h0V481H282a4.11,4.11,0,0,0,4.11-4.11v-3.52A4.11,4.11,0,0,0,282,469.28Z" transform="translate(-250.53 -457.38)"/><text class="cls-2" transform="translate(54.29 27.48)">ЭП<tspan class="cls-3" x="31.64" y="0">И</tspan><tspan x="48.06" y="0">ДЕМИИ-Н</tspan><tspan class="cls-4" x="154.92" y="0">Е</tspan><tspan class="cls-5" x="168.15" y="0">Т</tspan><tspan x="179.19" y="0">.РФ</tspan></text></svg>